<svg width="400" height="400" viewBox="0 0 400 400" fill="none" xmlns="http://www.w3.org/2000/svg">
<rect x="7.62939e-06" y="6.10352e-05" width="400" height="400" rx="25" fill="#EDF2F7"/>
<rect x="52" y="17.0001" width="5" height="367" rx="2.5" fill="#6C6C6C"/>
<rect x="168" y="17.0001" width="5" height="367" rx="2.5" fill="#6C6C6C"/>
<rect x="226" y="17.0001" width="5" height="367" rx="2.5" fill="#6C6C6C"/>
<rect x="284" y="17.0001" width="5" height="367" rx="2.5" fill="#6C6C6C"/>
<rect x="342" y="17.0001" width="5" height="367" rx="2.5" fill="#6C6C6C"/>
<rect x="110" y="17.0001" width="5" height="367" rx="2.5" fill="#6C6C6C"/>
<rect x="53" y="16.0001" width="5" height="367" rx="2.5" fill="#6C6C6C"/>
<rect x="169" y="16.0001" width="5" height="367" rx="2.5" fill="#6C6C6C"/>
<rect x="227" y="16.0001" width="5" height="367" rx="2.5" fill="#6C6C6C"/>
<rect x="285" y="16.0001" width="5" height="367" rx="2.5" fill="#6C6C6C"/>
<rect x="343" y="16.0001" width="5" height="367" rx="2.5" fill="#6C6C6C"/>
<rect x="111" y="16.0001" width="5" height="367" rx="2.5" fill="#6C6C6C"/>
<rect x="384" y="53" width="5" height="367" rx="2.5" transform="rotate(90 384 53)" fill="#6C6C6C"/>
<rect x="384" y="169" width="5" height="367" rx="2.5" transform="rotate(90 384 169)" fill="#6C6C6C"/>
<rect x="384" y="227" width="5" height="367" rx="2.5" transform="rotate(90 384 227)" fill="#6C6C6C"/>
<rect x="384" y="285" width="5" height="367" rx="2.5" transform="rotate(90 384 285)" fill="#6C6C6C"/>
<rect x="384" y="343" width="5" height="367" rx="2.5" transform="rotate(90 384 343)" fill="#6C6C6C"/>
<rect x="384" y="111" width="5" height="367" rx="2.5" transform="rotate(90 384 111)" fill="#6C6C6C"/>
<path d="M76 114.5C76 126.926 65.9264 137 53.5 137C41.0736 137 31 126.926 31 114.5C31 102.074 41.0736 92 53.5 92C65.9264 92 76 102.074 76 114.5Z" fill="#2D3748"/>
<circle cx="170.5" cy="288.5" r="22.5" fill="#2D3748"/>
<circle cx="286.5" cy="230.5" r="22.5" fill="#2D3748"/>
<circle cx="170.5" cy="114.5" r="22.5" fill="#2D3748"/>
<circle cx="112.5" cy="230.5" r="20.5" fill="white" stroke="#2D3748" stroke-width="4"/>
<circle cx="229.5" cy="172.5" r="20.5" fill="white" stroke="#2D3748" stroke-width="4"/>
<circle cx="110.5" cy="56.5" r="20.5" fill="white" stroke="#2D3748" stroke-width="4"/>
<circle cx="345.5" cy="346.5" r="20.5" fill="white" stroke="#2D3748" stroke-width="4"/>
<circle cx="286.5" cy="56.5" r="20.5" fill="white" stroke="#2D3748" stroke-width="4"/>
</svg>
